<svg xmlns="http://www.w3.org/2000/svg" viewBox="0 0 100 100" width="100" height="100">
  <!-- Hexagonal cube logo - TATÁ SUSHI brand mark -->
  <rect width="100" height="100" fill="none"/>
  <g fill="none" stroke="#CFFF00" stroke-width="5.5" stroke-linejoin="round" stroke-linecap="round">
    <!-- Outer hexagon -->
    <polygon points="50,4 92,27 92,73 50,96 8,73 8,27"/>
    <!-- Inner hexagon (center) -->
    <polygon points="50,32 68,42 68,62 50,72 32,62 32,42"/>
    <!-- Small top hexagon -->
    <polygon points="50,10 58,15 58,23 50,28 42,23 42,15"/>
    <!-- Left vertical lines (cube left face) -->
    <line x1="8" y1="27" x2="32" y2="42"/>
    <line x1="8" y1="73" x2="32" y2="62"/>
    <!-- Right vertical lines (cube right face) -->
    <line x1="92" y1="27" x2="68" y2="42"/>
    <line x1="92" y1="73" x2="68" y2="62"/>
    <!-- Bottom X cross -->
    <line x1="32" y1="62" x2="50" y2="72"/>
    <line x1="68" y1="62" x2="50" y2="72"/>
    <line x1="32" y1="62" x2="50" y2="96"/>
    <line x1="68" y1="62" x2="50" y2="96"/>
    <!-- Top center connection -->
    <line x1="50" y1="28" x2="50" y2="32"/>
    <line x1="42" y1="15" x2="32" y2="42"/>
    <line x1="58" y1="15" x2="68" y2="42"/>
  </g>
</svg>
